# Blender 4.0.0
# www.blender.org
mtllib Picture.mtl
o 3d-model
v -1.840367 -0.000000 -0.075742
v -1.840367 2.834806 -0.075741
v 1.840367 2.834806 -0.075741
v 1.840367 -0.000000 -0.075742
v -1.763361 0.077006 0.075741
v -1.840367 2.834806 0.075741
v -1.840367 -0.000000 0.075741
v 1.840367 -0.000000 0.075741
v 1.763361 0.077006 0.075741
v 1.763361 2.757801 0.075741
v 1.840367 2.834806 0.075741
v -1.763361 2.757801 0.075741
v -1.598235 0.246290 -0.000000
v -1.634956 2.597317 -0.000000
v -1.634956 0.209569 -0.000000
v 1.630204 0.209569 -0.000000
v 1.593483 0.246290 -0.000000
v 1.593483 2.560596 -0.000000
v 1.630204 2.597317 -0.000000
v -1.598235 2.560596 -0.000000
v -1.598235 2.560596 -0.024356
v -1.598235 0.246290 -0.024356
v 1.593483 0.246290 -0.024356
v 1.593483 2.560596 -0.024356
vn -0.0000 -0.0000 -1.0000
vn -0.0000 -0.0000 1.0000
vn -0.0000 -1.0000 -0.0000
vn 1.0000 -0.0000 -0.0000
vn -0.0000 1.0000 -0.0000
vn -1.0000 -0.0000 -0.0000
vn 0.5081 -0.0000 0.8613
vn -0.0000 -0.4268 0.9043
vn -0.0000 0.4961 0.8683
vn -0.4944 -0.0000 0.8692
vt -0.492600 0.665200
vt -0.492600 0.680400
vt -0.504900 0.680500
vt -0.504900 0.665300
vt 0.354900 0.309500
vt 0.348200 0.696400
vt 0.348200 0.298700
vt 0.670900 0.298700
vt 0.664100 0.309500
vt 0.664100 0.685600
vt 0.670900 0.696400
vt 0.354900 0.685600
vt -0.326800 -0.672600
vt -0.649500 -0.672600
vt -0.649500 -0.693900
vt -0.326800 -0.693900
vt -0.013300 0.298700
vt 0.000000 0.298700
vt 0.000000 0.696400
vt -0.013300 0.696400
vt 0.674800 -0.674900
vt 0.352000 -0.674900
vt 0.352000 -0.696200
vt 0.674800 -0.696200
vt 0.365200 0.291900
vt 0.351900 0.291900
vt 0.351900 0.689600
vt 0.365200 0.689600
vt 0.369400 0.333300
vt 0.366200 0.663100
vt 0.366200 0.328100
vt 0.652500 0.328100
vt 0.649200 0.333300
vt 0.649200 0.657900
vt 0.652500 0.663100
vt 0.369400 0.657900
vt 0.371600 0.333300
vt 0.371600 0.657900
vt 0.649200 0.336700
vt 0.369400 0.336700
vt 0.647100 0.333300
vt 0.647100 0.657900
vt 0.369400 0.654500
vt 0.649200 0.654500
vt 0.352500 0.687100
vt 0.352500 0.311100
vt 0.365600 0.329700
vt 0.365600 0.664600
vt 0.367100 0.660100
vt 0.653400 0.660100
vt 0.368200 0.330700
vt 0.357000 0.309300
vt 0.666200 0.309300
vt 0.654500 0.330700
vt 0.652500 0.667400
vt 0.652500 0.332400
vt 0.666000 0.313800
vt 0.666000 0.689900
s 0
usemtl wire_028089177
f 1/1/1 2/2/1 3/3/1 4/4/1
f 5/5/2 6/6/2 7/7/2 8/8/2
f 9/9/2 5/5/2 8/8/2 10/10/2
f 10/10/2 8/8/2 11/11/2 12/12/2
f 12/12/2 11/11/2 6/6/2 5/5/2
f 1/13/3 4/14/3 8/15/3 7/16/3
f 8/17/4 4/18/4 3/19/4 11/20/4
f 3/21/5 2/22/5 6/23/5 11/24/5
f 1/25/6 7/26/6 6/27/6 2/28/6
f 13/29/2 14/30/2 15/31/2 16/32/2
f 17/33/2 13/29/2 16/32/2 18/34/2
f 18/34/2 16/32/2 19/35/2 20/36/2
f 20/36/2 19/35/2 14/30/2 13/29/2
f 21/36/2 22/29/2 23/33/2 24/34/2
f 13/29/4 22/37/4 21/38/4 20/36/4
f 23/39/5 22/40/5 13/29/5 17/33/5
f 23/41/6 17/33/6 18/34/6 24/42/6
f 21/43/3 24/44/3 18/34/3 20/36/3
f 12/45/7 5/46/7 15/47/7 14/48/7
f 10/10/8 12/12/8 14/49/8 19/50/8
f 15/51/9 5/52/9 9/53/9 16/54/9
f 19/55/10 16/56/10 9/57/10 10/58/10
